<?xml version="1.0" encoding="utf-8" standalone="no"?>
<!DOCTYPE svg PUBLIC "-//W3C//DTD SVG 1.1//EN"
  "http://www.w3.org/Graphics/SVG/1.1/DTD/svg11.dtd">
<!-- Created with matplotlib (http://matplotlib.org/) -->
<svg height="360pt" version="1.1" viewBox="0 0 576 360" width="576pt" xmlns="http://www.w3.org/2000/svg" xmlns:xlink="http://www.w3.org/1999/xlink">
 <defs>
  <style type="text/css">
*{stroke-linecap:butt;stroke-linejoin:round;stroke-miterlimit:100000;}
  </style>
 </defs>
 <g id="figure_1">
  <g id="patch_1">
   <path d="M 0 360 
L 576 360 
L 576 0 
L 0 0 
z
" style="fill:#ffffff;"/>
  </g>
  <g id="axes_1">
   <g id="patch_2">
    <path d="M 72 324 
L 518.4 324 
L 518.4 36 
L 72 36 
z
" style="fill:#ffffff;"/>
   </g>
   <g id="LineCollection_1">
    <path clip-path="url(#pe0ca3e7a42)" d="M 138.96 180 
L 138.96 182.145955 
" style="fill:none;stroke:#000000;stroke-width:3.0;"/>
    <path clip-path="url(#pe0ca3e7a42)" d="M 146.4 180 
L 146.4 185.399167 
" style="fill:none;stroke:#000000;stroke-width:3.0;"/>
    <path clip-path="url(#pe0ca3e7a42)" d="M 153.84 180 
L 153.84 175.742511 
" style="fill:none;stroke:#000000;stroke-width:3.0;"/>
    <path clip-path="url(#pe0ca3e7a42)" d="M 161.28 180 
L 161.28 181.721651 
" style="fill:none;stroke:#000000;stroke-width:3.0;"/>
    <path clip-path="url(#pe0ca3e7a42)" d="M 168.72 180 
L 168.72 184.336038 
" style="fill:none;stroke:#000000;stroke-width:3.0;"/>
    <path clip-path="url(#pe0ca3e7a42)" d="M 176.16 180 
L 176.16 176.397472 
" style="fill:none;stroke:#000000;stroke-width:3.0;"/>
    <path clip-path="url(#pe0ca3e7a42)" d="M 183.6 180 
L 183.6 196.555493 
" style="fill:none;stroke:#000000;stroke-width:3.0;"/>
    <path clip-path="url(#pe0ca3e7a42)" d="M 191.04 180 
L 191.04 149.41613 
" style="fill:none;stroke:#000000;stroke-width:3.0;"/>
    <path clip-path="url(#pe0ca3e7a42)" d="M 198.48 180 
L 198.48 223.575313 
" style="fill:none;stroke:#000000;stroke-width:3.0;"/>
    <path clip-path="url(#pe0ca3e7a42)" d="M 205.92 180 
L 205.92 156.996661 
" style="fill:none;stroke:#000000;stroke-width:3.0;"/>
    <path clip-path="url(#pe0ca3e7a42)" d="M 213.36 180 
L 213.36 212.774294 
" style="fill:none;stroke:#000000;stroke-width:3.0;"/>
    <path clip-path="url(#pe0ca3e7a42)" d="M 220.8 180 
L 220.8 109.726162 
" style="fill:none;stroke:#000000;stroke-width:3.0;"/>
    <path clip-path="url(#pe0ca3e7a42)" d="M 228.24 180 
L 228.24 178.153819 
" style="fill:none;stroke:#000000;stroke-width:3.0;"/>
    <path clip-path="url(#pe0ca3e7a42)" d="M 235.68 180 
L 235.68 215.319398 
" style="fill:none;stroke:#000000;stroke-width:3.0;"/>
    <path clip-path="url(#pe0ca3e7a42)" d="M 243.12 180 
L 243.12 215.399449 
" style="fill:none;stroke:#000000;stroke-width:3.0;"/>
    <path clip-path="url(#pe0ca3e7a42)" d="M 250.56 180 
L 250.56 141.354238 
" style="fill:none;stroke:#000000;stroke-width:3.0;"/>
    <path clip-path="url(#pe0ca3e7a42)" d="M 258 180 
L 258 110.389291 
" style="fill:none;stroke:#000000;stroke-width:3.0;"/>
    <path clip-path="url(#pe0ca3e7a42)" d="M 265.44 180 
L 265.44 142.875465 
" style="fill:none;stroke:#000000;stroke-width:3.0;"/>
    <path clip-path="url(#pe0ca3e7a42)" d="M 272.88 180 
L 272.88 224.49001 
" style="fill:none;stroke:#000000;stroke-width:3.0;"/>
    <path clip-path="url(#pe0ca3e7a42)" d="M 280.32 180 
L 280.32 187.199791 
" style="fill:none;stroke:#000000;stroke-width:3.0;"/>
    <path clip-path="url(#pe0ca3e7a42)" d="M 287.76 180 
L 287.76 179.780235 
" style="fill:none;stroke:#000000;stroke-width:3.0;"/>
    <path clip-path="url(#pe0ca3e7a42)" d="M 295.2 180 
L 295.2 148.177141 
" style="fill:none;stroke:#000000;stroke-width:3.0;"/>
    <path clip-path="url(#pe0ca3e7a42)" d="M 302.64 180 
L 302.64 190.725761 
" style="fill:none;stroke:#000000;stroke-width:3.0;"/>
    <path clip-path="url(#pe0ca3e7a42)" d="M 310.08 180 
L 310.08 244.978628 
" style="fill:none;stroke:#000000;stroke-width:3.0;"/>
    <path clip-path="url(#pe0ca3e7a42)" d="M 317.52 180 
L 317.52 154.306899 
" style="fill:none;stroke:#000000;stroke-width:3.0;"/>
    <path clip-path="url(#pe0ca3e7a42)" d="M 324.96 180 
L 324.96 208.312528 
" style="fill:none;stroke:#000000;stroke-width:3.0;"/>
    <path clip-path="url(#pe0ca3e7a42)" d="M 332.4 180 
L 332.4 132.523762 
" style="fill:none;stroke:#000000;stroke-width:3.0;"/>
    <path clip-path="url(#pe0ca3e7a42)" d="M 339.84 180 
L 339.84 242.32152 
" style="fill:none;stroke:#000000;stroke-width:3.0;"/>
    <path clip-path="url(#pe0ca3e7a42)" d="M 347.28 180 
L 347.28 263.498134 
" style="fill:none;stroke:#000000;stroke-width:3.0;"/>
    <path clip-path="url(#pe0ca3e7a42)" d="M 354.72 180 
L 354.72 198.856519 
" style="fill:none;stroke:#000000;stroke-width:3.0;"/>
    <path clip-path="url(#pe0ca3e7a42)" d="M 362.16 180 
L 362.16 165.866642 
" style="fill:none;stroke:#000000;stroke-width:3.0;"/>
    <path clip-path="url(#pe0ca3e7a42)" d="M 369.6 180 
L 369.6 64.690437 
" style="fill:none;stroke:#000000;stroke-width:3.0;"/>
    <path clip-path="url(#pe0ca3e7a42)" d="M 377.04 180 
L 377.04 140.978765 
" style="fill:none;stroke:#000000;stroke-width:3.0;"/>
    <path clip-path="url(#pe0ca3e7a42)" d="M 384.48 180 
L 384.48 303.308645 
" style="fill:none;stroke:#000000;stroke-width:3.0;"/>
    <path clip-path="url(#pe0ca3e7a42)" d="M 391.92 180 
L 391.92 199.079065 
" style="fill:none;stroke:#000000;stroke-width:3.0;"/>
    <path clip-path="url(#pe0ca3e7a42)" d="M 399.36 180 
L 399.36 113.932947 
" style="fill:none;stroke:#000000;stroke-width:3.0;"/>
    <path clip-path="url(#pe0ca3e7a42)" d="M 406.8 180 
L 406.8 129.266944 
" style="fill:none;stroke:#000000;stroke-width:3.0;"/>
    <path clip-path="url(#pe0ca3e7a42)" d="M 414.24 180 
L 414.24 154.514961 
" style="fill:none;stroke:#000000;stroke-width:3.0;"/>
    <path clip-path="url(#pe0ca3e7a42)" d="M 421.68 180 
L 421.68 178.290932 
" style="fill:none;stroke:#000000;stroke-width:3.0;"/>
    <path clip-path="url(#pe0ca3e7a42)" d="M 429.12 180 
L 429.12 162.716002 
" style="fill:none;stroke:#000000;stroke-width:3.0;"/>
    <path clip-path="url(#pe0ca3e7a42)" d="M 436.56 180 
L 436.56 210.437846 
" style="fill:none;stroke:#000000;stroke-width:3.0;"/>
    <path clip-path="url(#pe0ca3e7a42)" d="M 444 180 
L 444 217.054763 
" style="fill:none;stroke:#000000;stroke-width:3.0;"/>
    <path clip-path="url(#pe0ca3e7a42)" d="M 451.44 180 
L 451.44 181.203406 
" style="fill:none;stroke:#000000;stroke-width:3.0;"/>
   </g>
   <g id="line2d_1">
    <path clip-path="url(#pe0ca3e7a42)" d="M 72 180 
L 518.4 180 
" style="fill:none;stroke:#000000;stroke-linecap:square;stroke-width:3.0;"/>
   </g>
   <g id="patch_3">
    <path d="M 72 36 
L 518.4 36 
" style="fill:none;stroke:#000000;stroke-linecap:square;stroke-linejoin:miter;"/>
   </g>
   <g id="patch_4">
    <path d="M 518.4 324 
L 518.4 36 
" style="fill:none;stroke:#000000;stroke-linecap:square;stroke-linejoin:miter;"/>
   </g>
   <g id="patch_5">
    <path d="M 72 324 
L 518.4 324 
" style="fill:none;stroke:#000000;stroke-linecap:square;stroke-linejoin:miter;"/>
   </g>
   <g id="patch_6">
    <path d="M 72 324 
L 72 36 
" style="fill:none;stroke:#000000;stroke-linecap:square;stroke-linejoin:miter;"/>
   </g>
   <g id="matplotlib.axis_1">
    <g id="xtick_1">
     <g id="line2d_2">
      <path clip-path="url(#pe0ca3e7a42)" d="M 72 324 
L 72 36 
" style="fill:none;stroke:#000000;stroke-dasharray:6.000000,6.000000;stroke-dashoffset:0.0;stroke-width:0.5;"/>
     </g>
     <g id="line2d_3">
      <defs>
       <path d="M 0 0 
L 0 -4 
" id="mcfe73d7681" style="stroke:#000000;stroke-width:0.5;"/>
      </defs>
      <g>
       <use style="stroke:#000000;stroke-width:0.5;" x="72.0" xlink:href="#mcfe73d7681" y="324.0"/>
      </g>
     </g>
     <g id="line2d_4">
      <defs>
       <path d="M 0 0 
L 0 4 
" id="mae3e58478a" style="stroke:#000000;stroke-width:0.5;"/>
      </defs>
      <g>
       <use style="stroke:#000000;stroke-width:0.5;" x="72.0" xlink:href="#mae3e58478a" y="36.0"/>
      </g>
     </g>
     <g id="text_1">
      <!-- −30 -->
      <defs>
       <path d="M 10.59375 35.5 
L 73.1875 35.5 
L 73.1875 27.203125 
L 10.59375 27.203125 
z
" id="BitstreamVeraSans-Roman-2212"/>
       <path d="M 40.578125 39.3125 
Q 47.65625 37.796875 51.625 33 
Q 55.609375 28.21875 55.609375 21.1875 
Q 55.609375 10.40625 48.1875 4.484375 
Q 40.765625 -1.421875 27.09375 -1.421875 
Q 22.515625 -1.421875 17.65625 -0.515625 
Q 12.796875 0.390625 7.625 2.203125 
L 7.625 11.71875 
Q 11.71875 9.328125 16.59375 8.109375 
Q 21.484375 6.890625 26.8125 6.890625 
Q 36.078125 6.890625 40.9375 10.546875 
Q 45.796875 14.203125 45.796875 21.1875 
Q 45.796875 27.640625 41.28125 31.265625 
Q 36.765625 34.90625 28.71875 34.90625 
L 20.21875 34.90625 
L 20.21875 43.015625 
L 29.109375 43.015625 
Q 36.375 43.015625 40.234375 45.921875 
Q 44.09375 48.828125 44.09375 54.296875 
Q 44.09375 59.90625 40.109375 62.90625 
Q 36.140625 65.921875 28.71875 65.921875 
Q 24.65625 65.921875 20.015625 65.03125 
Q 15.375 64.15625 9.8125 62.3125 
L 9.8125 71.09375 
Q 15.4375 72.65625 20.34375 73.4375 
Q 25.25 74.21875 29.59375 74.21875 
Q 40.828125 74.21875 47.359375 69.109375 
Q 53.90625 64.015625 53.90625 55.328125 
Q 53.90625 49.265625 50.4375 45.09375 
Q 46.96875 40.921875 40.578125 39.3125 
" id="BitstreamVeraSans-Roman-33"/>
       <path d="M 31.78125 66.40625 
Q 24.171875 66.40625 20.328125 58.90625 
Q 16.5 51.421875 16.5 36.375 
Q 16.5 21.390625 20.328125 13.890625 
Q 24.171875 6.390625 31.78125 6.390625 
Q 39.453125 6.390625 43.28125 13.890625 
Q 47.125 21.390625 47.125 36.375 
Q 47.125 51.421875 43.28125 58.90625 
Q 39.453125 66.40625 31.78125 66.40625 
M 31.78125 74.21875 
Q 44.046875 74.21875 50.515625 64.515625 
Q 56.984375 54.828125 56.984375 36.375 
Q 56.984375 17.96875 50.515625 8.265625 
Q 44.046875 -1.421875 31.78125 -1.421875 
Q 19.53125 -1.421875 13.0625 8.265625 
Q 6.59375 17.96875 6.59375 36.375 
Q 6.59375 54.828125 13.0625 64.515625 
Q 19.53125 74.21875 31.78125 74.21875 
" id="BitstreamVeraSans-Roman-30"/>
      </defs>
      <g transform="translate(59.3371875 337.118125)scale(0.12 -0.12)">
       <use xlink:href="#BitstreamVeraSans-Roman-2212"/>
       <use x="83.7890625" xlink:href="#BitstreamVeraSans-Roman-33"/>
       <use x="147.412109375" xlink:href="#BitstreamVeraSans-Roman-30"/>
      </g>
     </g>
    </g>
    <g id="xtick_2">
     <g id="line2d_5">
      <path clip-path="url(#pe0ca3e7a42)" d="M 146.4 324 
L 146.4 36 
" style="fill:none;stroke:#000000;stroke-dasharray:6.000000,6.000000;stroke-dashoffset:0.0;stroke-width:0.5;"/>
     </g>
     <g id="line2d_6">
      <g>
       <use style="stroke:#000000;stroke-width:0.5;" x="146.4" xlink:href="#mcfe73d7681" y="324.0"/>
      </g>
     </g>
     <g id="line2d_7">
      <g>
       <use style="stroke:#000000;stroke-width:0.5;" x="146.4" xlink:href="#mae3e58478a" y="36.0"/>
      </g>
     </g>
     <g id="text_2">
      <!-- −20 -->
      <defs>
       <path d="M 19.1875 8.296875 
L 53.609375 8.296875 
L 53.609375 0 
L 7.328125 0 
L 7.328125 8.296875 
Q 12.9375 14.109375 22.625 23.890625 
Q 32.328125 33.6875 34.8125 36.53125 
Q 39.546875 41.84375 41.421875 45.53125 
Q 43.3125 49.21875 43.3125 52.78125 
Q 43.3125 58.59375 39.234375 62.25 
Q 35.15625 65.921875 28.609375 65.921875 
Q 23.96875 65.921875 18.8125 64.3125 
Q 13.671875 62.703125 7.8125 59.421875 
L 7.8125 69.390625 
Q 13.765625 71.78125 18.9375 73 
Q 24.125 74.21875 28.421875 74.21875 
Q 39.75 74.21875 46.484375 68.546875 
Q 53.21875 62.890625 53.21875 53.421875 
Q 53.21875 48.921875 51.53125 44.890625 
Q 49.859375 40.875 45.40625 35.40625 
Q 44.1875 33.984375 37.640625 27.21875 
Q 31.109375 20.453125 19.1875 8.296875 
" id="BitstreamVeraSans-Roman-32"/>
      </defs>
      <g transform="translate(133.7371875 337.118125)scale(0.12 -0.12)">
       <use xlink:href="#BitstreamVeraSans-Roman-2212"/>
       <use x="83.7890625" xlink:href="#BitstreamVeraSans-Roman-32"/>
       <use x="147.412109375" xlink:href="#BitstreamVeraSans-Roman-30"/>
      </g>
     </g>
    </g>
    <g id="xtick_3">
     <g id="line2d_8">
      <path clip-path="url(#pe0ca3e7a42)" d="M 220.8 324 
L 220.8 36 
" style="fill:none;stroke:#000000;stroke-dasharray:6.000000,6.000000;stroke-dashoffset:0.0;stroke-width:0.5;"/>
     </g>
     <g id="line2d_9">
      <g>
       <use style="stroke:#000000;stroke-width:0.5;" x="220.8" xlink:href="#mcfe73d7681" y="324.0"/>
      </g>
     </g>
     <g id="line2d_10">
      <g>
       <use style="stroke:#000000;stroke-width:0.5;" x="220.8" xlink:href="#mae3e58478a" y="36.0"/>
      </g>
     </g>
     <g id="text_3">
      <!-- −10 -->
      <defs>
       <path d="M 12.40625 8.296875 
L 28.515625 8.296875 
L 28.515625 63.921875 
L 10.984375 60.40625 
L 10.984375 69.390625 
L 28.421875 72.90625 
L 38.28125 72.90625 
L 38.28125 8.296875 
L 54.390625 8.296875 
L 54.390625 0 
L 12.40625 0 
z
" id="BitstreamVeraSans-Roman-31"/>
      </defs>
      <g transform="translate(208.1371875 337.118125)scale(0.12 -0.12)">
       <use xlink:href="#BitstreamVeraSans-Roman-2212"/>
       <use x="83.7890625" xlink:href="#BitstreamVeraSans-Roman-31"/>
       <use x="147.412109375" xlink:href="#BitstreamVeraSans-Roman-30"/>
      </g>
     </g>
    </g>
    <g id="xtick_4">
     <g id="line2d_11">
      <path clip-path="url(#pe0ca3e7a42)" d="M 295.2 324 
L 295.2 36 
" style="fill:none;stroke:#000000;stroke-dasharray:6.000000,6.000000;stroke-dashoffset:0.0;stroke-width:0.5;"/>
     </g>
     <g id="line2d_12">
      <g>
       <use style="stroke:#000000;stroke-width:0.5;" x="295.2" xlink:href="#mcfe73d7681" y="324.0"/>
      </g>
     </g>
     <g id="line2d_13">
      <g>
       <use style="stroke:#000000;stroke-width:0.5;" x="295.2" xlink:href="#mae3e58478a" y="36.0"/>
      </g>
     </g>
     <g id="text_4">
      <!-- 0 -->
      <g transform="translate(291.3825 337.118125)scale(0.12 -0.12)">
       <use xlink:href="#BitstreamVeraSans-Roman-30"/>
      </g>
     </g>
    </g>
    <g id="xtick_5">
     <g id="line2d_14">
      <path clip-path="url(#pe0ca3e7a42)" d="M 369.6 324 
L 369.6 36 
" style="fill:none;stroke:#000000;stroke-dasharray:6.000000,6.000000;stroke-dashoffset:0.0;stroke-width:0.5;"/>
     </g>
     <g id="line2d_15">
      <g>
       <use style="stroke:#000000;stroke-width:0.5;" x="369.6" xlink:href="#mcfe73d7681" y="324.0"/>
      </g>
     </g>
     <g id="line2d_16">
      <g>
       <use style="stroke:#000000;stroke-width:0.5;" x="369.6" xlink:href="#mae3e58478a" y="36.0"/>
      </g>
     </g>
     <g id="text_5">
      <!-- 10 -->
      <g transform="translate(361.965 337.118125)scale(0.12 -0.12)">
       <use xlink:href="#BitstreamVeraSans-Roman-31"/>
       <use x="63.623046875" xlink:href="#BitstreamVeraSans-Roman-30"/>
      </g>
     </g>
    </g>
    <g id="xtick_6">
     <g id="line2d_17">
      <path clip-path="url(#pe0ca3e7a42)" d="M 444 324 
L 444 36 
" style="fill:none;stroke:#000000;stroke-dasharray:6.000000,6.000000;stroke-dashoffset:0.0;stroke-width:0.5;"/>
     </g>
     <g id="line2d_18">
      <g>
       <use style="stroke:#000000;stroke-width:0.5;" x="444.0" xlink:href="#mcfe73d7681" y="324.0"/>
      </g>
     </g>
     <g id="line2d_19">
      <g>
       <use style="stroke:#000000;stroke-width:0.5;" x="444.0" xlink:href="#mae3e58478a" y="36.0"/>
      </g>
     </g>
     <g id="text_6">
      <!-- 20 -->
      <g transform="translate(436.365 337.118125)scale(0.12 -0.12)">
       <use xlink:href="#BitstreamVeraSans-Roman-32"/>
       <use x="63.623046875" xlink:href="#BitstreamVeraSans-Roman-30"/>
      </g>
     </g>
    </g>
    <g id="xtick_7">
     <g id="line2d_20">
      <path clip-path="url(#pe0ca3e7a42)" d="M 518.4 324 
L 518.4 36 
" style="fill:none;stroke:#000000;stroke-dasharray:6.000000,6.000000;stroke-dashoffset:0.0;stroke-width:0.5;"/>
     </g>
     <g id="line2d_21">
      <g>
       <use style="stroke:#000000;stroke-width:0.5;" x="518.4" xlink:href="#mcfe73d7681" y="324.0"/>
      </g>
     </g>
     <g id="line2d_22">
      <g>
       <use style="stroke:#000000;stroke-width:0.5;" x="518.4" xlink:href="#mae3e58478a" y="36.0"/>
      </g>
     </g>
     <g id="text_7">
      <!-- 30 -->
      <g transform="translate(510.765 337.118125)scale(0.12 -0.12)">
       <use xlink:href="#BitstreamVeraSans-Roman-33"/>
       <use x="63.623046875" xlink:href="#BitstreamVeraSans-Roman-30"/>
      </g>
     </g>
    </g>
   </g>
   <g id="matplotlib.axis_2">
    <g id="ytick_1">
     <g id="line2d_23">
      <path clip-path="url(#pe0ca3e7a42)" d="M 72 295.2 
L 518.4 295.2 
" style="fill:none;stroke:#000000;stroke-dasharray:6.000000,6.000000;stroke-dashoffset:0.0;stroke-width:0.5;"/>
     </g>
     <g id="line2d_24">
      <defs>
       <path d="M 0 0 
L 4 0 
" id="m01bea0f0fc" style="stroke:#000000;stroke-width:0.5;"/>
      </defs>
      <g>
       <use style="stroke:#000000;stroke-width:0.5;" x="72.0" xlink:href="#m01bea0f0fc" y="295.2"/>
      </g>
     </g>
     <g id="line2d_25">
      <defs>
       <path d="M 0 0 
L -4 0 
" id="m5a013550fd" style="stroke:#000000;stroke-width:0.5;"/>
      </defs>
      <g>
       <use style="stroke:#000000;stroke-width:0.5;" x="518.4" xlink:href="#m5a013550fd" y="295.2"/>
      </g>
     </g>
     <g id="text_8">
      <!-- −0.4 -->
      <defs>
       <path d="M 10.6875 12.40625 
L 21 12.40625 
L 21 0 
L 10.6875 0 
z
" id="BitstreamVeraSans-Roman-2e"/>
       <path d="M 37.796875 64.3125 
L 12.890625 25.390625 
L 37.796875 25.390625 
z
M 35.203125 72.90625 
L 47.609375 72.90625 
L 47.609375 25.390625 
L 58.015625 25.390625 
L 58.015625 17.1875 
L 47.609375 17.1875 
L 47.609375 0 
L 37.796875 0 
L 37.796875 17.1875 
L 4.890625 17.1875 
L 4.890625 26.703125 
z
" id="BitstreamVeraSans-Roman-34"/>
      </defs>
      <g transform="translate(38.860625 298.51125)scale(0.12 -0.12)">
       <use xlink:href="#BitstreamVeraSans-Roman-2212"/>
       <use x="83.7890625" xlink:href="#BitstreamVeraSans-Roman-30"/>
       <use x="147.412109375" xlink:href="#BitstreamVeraSans-Roman-2e"/>
       <use x="179.19921875" xlink:href="#BitstreamVeraSans-Roman-34"/>
      </g>
     </g>
    </g>
    <g id="ytick_2">
     <g id="line2d_26">
      <path clip-path="url(#pe0ca3e7a42)" d="M 72 237.6 
L 518.4 237.6 
" style="fill:none;stroke:#000000;stroke-dasharray:6.000000,6.000000;stroke-dashoffset:0.0;stroke-width:0.5;"/>
     </g>
     <g id="line2d_27">
      <g>
       <use style="stroke:#000000;stroke-width:0.5;" x="72.0" xlink:href="#m01bea0f0fc" y="237.6"/>
      </g>
     </g>
     <g id="line2d_28">
      <g>
       <use style="stroke:#000000;stroke-width:0.5;" x="518.4" xlink:href="#m5a013550fd" y="237.6"/>
      </g>
     </g>
     <g id="text_9">
      <!-- −0.2 -->
      <g transform="translate(38.860625 240.91125)scale(0.12 -0.12)">
       <use xlink:href="#BitstreamVeraSans-Roman-2212"/>
       <use x="83.7890625" xlink:href="#BitstreamVeraSans-Roman-30"/>
       <use x="147.412109375" xlink:href="#BitstreamVeraSans-Roman-2e"/>
       <use x="179.19921875" xlink:href="#BitstreamVeraSans-Roman-32"/>
      </g>
     </g>
    </g>
    <g id="ytick_3">
     <g id="line2d_29">
      <path clip-path="url(#pe0ca3e7a42)" d="M 72 180 
L 518.4 180 
" style="fill:none;stroke:#000000;stroke-dasharray:6.000000,6.000000;stroke-dashoffset:0.0;stroke-width:0.5;"/>
     </g>
     <g id="line2d_30">
      <g>
       <use style="stroke:#000000;stroke-width:0.5;" x="72.0" xlink:href="#m01bea0f0fc" y="180.0"/>
      </g>
     </g>
     <g id="line2d_31">
      <g>
       <use style="stroke:#000000;stroke-width:0.5;" x="518.4" xlink:href="#m5a013550fd" y="180.0"/>
      </g>
     </g>
     <g id="text_10">
      <!-- 0.0 -->
      <g transform="translate(48.91625 183.31125)scale(0.12 -0.12)">
       <use xlink:href="#BitstreamVeraSans-Roman-30"/>
       <use x="63.623046875" xlink:href="#BitstreamVeraSans-Roman-2e"/>
       <use x="95.41015625" xlink:href="#BitstreamVeraSans-Roman-30"/>
      </g>
     </g>
    </g>
    <g id="ytick_4">
     <g id="line2d_32">
      <path clip-path="url(#pe0ca3e7a42)" d="M 72 122.4 
L 518.4 122.4 
" style="fill:none;stroke:#000000;stroke-dasharray:6.000000,6.000000;stroke-dashoffset:0.0;stroke-width:0.5;"/>
     </g>
     <g id="line2d_33">
      <g>
       <use style="stroke:#000000;stroke-width:0.5;" x="72.0" xlink:href="#m01bea0f0fc" y="122.4"/>
      </g>
     </g>
     <g id="line2d_34">
      <g>
       <use style="stroke:#000000;stroke-width:0.5;" x="518.4" xlink:href="#m5a013550fd" y="122.4"/>
      </g>
     </g>
     <g id="text_11">
      <!-- 0.2 -->
      <g transform="translate(48.91625 125.71125)scale(0.12 -0.12)">
       <use xlink:href="#BitstreamVeraSans-Roman-30"/>
       <use x="63.623046875" xlink:href="#BitstreamVeraSans-Roman-2e"/>
       <use x="95.41015625" xlink:href="#BitstreamVeraSans-Roman-32"/>
      </g>
     </g>
    </g>
    <g id="ytick_5">
     <g id="line2d_35">
      <path clip-path="url(#pe0ca3e7a42)" d="M 72 64.8 
L 518.4 64.8 
" style="fill:none;stroke:#000000;stroke-dasharray:6.000000,6.000000;stroke-dashoffset:0.0;stroke-width:0.5;"/>
     </g>
     <g id="line2d_36">
      <g>
       <use style="stroke:#000000;stroke-width:0.5;" x="72.0" xlink:href="#m01bea0f0fc" y="64.8"/>
      </g>
     </g>
     <g id="line2d_37">
      <g>
       <use style="stroke:#000000;stroke-width:0.5;" x="518.4" xlink:href="#m5a013550fd" y="64.8"/>
      </g>
     </g>
     <g id="text_12">
      <!-- 0.4 -->
      <g transform="translate(48.91625 68.11125)scale(0.12 -0.12)">
       <use xlink:href="#BitstreamVeraSans-Roman-30"/>
       <use x="63.623046875" xlink:href="#BitstreamVeraSans-Roman-2e"/>
       <use x="95.41015625" xlink:href="#BitstreamVeraSans-Roman-34"/>
      </g>
     </g>
    </g>
   </g>
  </g>
 </g>
 <defs>
  <clipPath id="pe0ca3e7a42">
   <rect height="288.0" width="446.4" x="72.0" y="36.0"/>
  </clipPath>
 </defs>
</svg>
